HIERARCHY
ROOT Hips
{
	OFFSET 0.000000 100.481300 0.000000
	CHANNELS 6 Xposition Yposition Zposition Xrotation Yrotation Zrotation 
	JOINT Spine
	{
		OFFSET -0.279200 12.230698 -2.892100
		CHANNELS 3 Xrotation Yrotation Zrotation
		JOINT Spine1
		{
			OFFSET -0.232667 10.192268 -1.242267
			CHANNELS 3 Xrotation Yrotation Zrotation
			JOINT Spine1_split
			{
				OFFSET -0.232667 10.192268 -1.242267
				CHANNELS 3 Xrotation Yrotation Zrotation
				JOINT Spine2
				{
					OFFSET -0.232667 10.192268 -1.242267
					CHANNELS 3 Xrotation Yrotation Zrotation
					JOINT Neck
					{
						OFFSET -0.418800 17.814194 8.416900
						CHANNELS 3 Xrotation Yrotation Zrotation
						JOINT Head
						{
							OFFSET 0.000000 7.031097 3.806800
							CHANNELS 3 Xrotation Yrotation Zrotation
							JOINT HeadTop_End
							{
								OFFSET 0.000000 24.646606 12.978600
								CHANNELS 3 Xrotation Yrotation Zrotation
								End Site
								{
									OFFSET 0.000000 0.000000 0.000000
								}
							}
						}
					}
					JOINT LeftShoulder
					{
						OFFSET 8.476499 7.247704 -3.868750
						CHANNELS 3 Xrotation Yrotation Zrotation
						JOINT LeftShoulder_split
						{
							OFFSET 8.476499 7.247704 -3.868750
							CHANNELS 3 Xrotation Yrotation Zrotation
							JOINT LeftArm
							{
								OFFSET 9.308998 -2.777710 0.208600
								CHANNELS 3 Xrotation Yrotation Zrotation
								JOINT LeftForeArm
								{
									OFFSET 29.972298 0.000000 0.000000
									CHANNELS 3 Xrotation Yrotation Zrotation
									JOINT LeftHand
									{
										OFFSET 26.026505 0.000000 0.000000
										CHANNELS 3 Xrotation Yrotation Zrotation
										JOINT LeftHandThumb1
										{
											OFFSET 12.240501 -7.147949 9.207150
											CHANNELS 3 Xrotation Yrotation Zrotation
											JOINT LeftHandThumb2
											{
												OFFSET 4.138618 -2.389435 2.389433
												CHANNELS 3 Xrotation Yrotation Zrotation
												JOINT LeftHandThumb3
												{
													OFFSET 2.726913 -1.574387 1.574386
													CHANNELS 3 Xrotation Yrotation Zrotation
													JOINT LeftHandThumb4
													{
														OFFSET 3.941010 -2.275345 2.275342
														CHANNELS 3 Xrotation Yrotation Zrotation
														End Site
														{
															OFFSET 0.000000 0.000000 0.000000
														}
													}
												}
											}
										}
										JOINT LeftHandIndex1
										{
											OFFSET 24.424698 -1.985611 5.953459
											CHANNELS 3 Xrotation Yrotation Zrotation
											JOINT LeftHandIndex2
											{
												OFFSET 6.426697 0.000000 0.000000
												CHANNELS 3 Xrotation Yrotation Zrotation
												JOINT LeftHandIndex3
												{
													OFFSET 5.337898 0.000000 0.000000
													CHANNELS 3 Xrotation Yrotation Zrotation
													JOINT LeftHandIndex4
													{
														OFFSET 4.409401 0.000000 0.000000
														CHANNELS 3 Xrotation Yrotation Zrotation
														End Site
														{
															OFFSET 0.000000 0.000000 0.000000
														}
													}
												}
											}
										}
										JOINT LeftHandMiddle1
										{
											OFFSET 23.810104 0.000000 0.000000
											CHANNELS 3 Xrotation Yrotation Zrotation
											JOINT LeftHandMiddle2
											{
												OFFSET 7.176498 0.000000 0.000000
												CHANNELS 3 Xrotation Yrotation Zrotation
												JOINT LeftHandMiddle3
												{
													OFFSET 6.774902 0.000000 0.000000
													CHANNELS 3 Xrotation Yrotation Zrotation
													JOINT LeftHandMiddle4
													{
														OFFSET 5.403328 0.000000 0.000000
														CHANNELS 3 Xrotation Yrotation Zrotation
														End Site
														{
															OFFSET 0.000000 0.000000 0.000000
														}
													}
												}
											}
										}
										JOINT LeftHandRing1
										{
											OFFSET 22.908401 -0.839279 -6.020567
											CHANNELS 3 Xrotation Yrotation Zrotation
											JOINT LeftHandRing2
											{
												OFFSET 6.337502 0.000000 0.000000
												CHANNELS 3 Xrotation Yrotation Zrotation
												JOINT LeftHandRing3
												{
													OFFSET 5.779297 0.000000 0.000000
													CHANNELS 3 Xrotation Yrotation Zrotation
													JOINT LeftHandRing4
													{
														OFFSET 4.965698 0.000000 0.000000
														CHANNELS 3 Xrotation Yrotation Zrotation
														End Site
														{
															OFFSET 0.000000 0.000000 0.000000
														}
													}
												}
											}
										}
										JOINT LeftHandPinky1
										{
											OFFSET 20.037003 -1.530319 -10.950146
											CHANNELS 3 Xrotation Yrotation Zrotation
											JOINT LeftHandPinky2
											{
												OFFSET 5.254700 0.000000 0.000000
												CHANNELS 3 Xrotation Yrotation Zrotation
												JOINT LeftHandPinky3
												{
													OFFSET 4.810204 0.000000 0.000000
													CHANNELS 3 Xrotation Yrotation Zrotation
													JOINT LeftHandPinky4
													{
														OFFSET 3.647202 0.000000 0.000000
														CHANNELS 3 Xrotation Yrotation Zrotation
														End Site
														{
															OFFSET 0.000000 0.000000 0.000000
														}
													}
												}
											}
										}
									}
								}
							}
						}
					}
					JOINT RightShoulder
					{
						OFFSET -7.570500 7.247704 -3.868750
						CHANNELS 3 Xrotation Yrotation Zrotation
						JOINT RightShoulder_split
						{
							OFFSET -7.570500 7.247704 -3.868750
							CHANNELS 3 Xrotation Yrotation Zrotation
							JOINT RightArm
							{
								OFFSET -9.308998 -2.777710 0.208500
								CHANNELS 3 Xrotation Yrotation Zrotation
								JOINT RightForeArm
								{
									OFFSET -29.972300 0.000000 0.000000
									CHANNELS 3 Xrotation Yrotation Zrotation
									JOINT RightHand
									{
										OFFSET -26.026505 0.000000 0.000000
										CHANNELS 3 Xrotation Yrotation Zrotation
										JOINT RightHandThumb1
										{
											OFFSET -12.240601 -7.148026 9.207092
											CHANNELS 3 Xrotation Yrotation Zrotation
											JOINT RightHandThumb2
											{
												OFFSET -4.138618 -2.389435 2.389433
												CHANNELS 3 Xrotation Yrotation Zrotation
												JOINT RightHandThumb3
												{
													OFFSET -2.726974 -1.574417 1.574421
													CHANNELS 3 Xrotation Yrotation Zrotation
													JOINT RightHandThumb4
													{
														OFFSET -3.941010 -2.275345 2.275343
														CHANNELS 3 Xrotation Yrotation Zrotation
														End Site
														{
															OFFSET 0.000000 0.000000 0.000000
														}
													}
												}
											}
										}
										JOINT RightHandIndex1
										{
											OFFSET -24.424698 -1.985657 5.953444
											CHANNELS 3 Xrotation Yrotation Zrotation
											JOINT RightHandIndex2
											{
												OFFSET -6.426697 0.000000 0.000000
												CHANNELS 3 Xrotation Yrotation Zrotation
												JOINT RightHandIndex3
												{
													OFFSET -5.337898 0.000000 0.000000
													CHANNELS 3 Xrotation Yrotation Zrotation
													JOINT RightHandIndex4
													{
														OFFSET -4.409401 0.000000 0.000000
														CHANNELS 3 Xrotation Yrotation Zrotation
														End Site
														{
															OFFSET 0.000000 0.000000 0.000000
														}
													}
												}
											}
										}
										JOINT RightHandMiddle1
										{
											OFFSET -23.810097 0.000000 0.000000
											CHANNELS 3 Xrotation Yrotation Zrotation
											JOINT RightHandMiddle2
											{
												OFFSET -7.176498 0.000000 0.000000
												CHANNELS 3 Xrotation Yrotation Zrotation
												JOINT RightHandMiddle3
												{
													OFFSET -6.774902 0.000000 0.000000
													CHANNELS 3 Xrotation Yrotation Zrotation
													JOINT RightHandMiddle4
													{
														OFFSET -5.403328 0.000000 0.000000
														CHANNELS 3 Xrotation Yrotation Zrotation
														End Site
														{
															OFFSET 0.000000 0.000000 0.000000
														}
													}
												}
											}
										}
										JOINT RightHandRing1
										{
											OFFSET -22.908302 -0.839325 -6.020576
											CHANNELS 3 Xrotation Yrotation Zrotation
											JOINT RightHandRing2
											{
												OFFSET -6.337502 0.000000 0.000000
												CHANNELS 3 Xrotation Yrotation Zrotation
												JOINT RightHandRing3
												{
													OFFSET -5.779297 0.000000 0.000000
													CHANNELS 3 Xrotation Yrotation Zrotation
													JOINT RightHandRing4
													{
														OFFSET -4.965698 0.000000 0.000000
														CHANNELS 3 Xrotation Yrotation Zrotation
														End Site
														{
															OFFSET 0.000000 0.000000 0.000000
														}
													}
												}
											}
										}
										JOINT RightHandPinky1
										{
											OFFSET -20.037003 -1.530334 -10.950259
											CHANNELS 3 Xrotation Yrotation Zrotation
											JOINT RightHandPinky2
											{
												OFFSET -5.254700 0.000000 0.000000
												CHANNELS 3 Xrotation Yrotation Zrotation
												JOINT RightHandPinky3
												{
													OFFSET -4.810204 0.000000 0.000000
													CHANNELS 3 Xrotation Yrotation Zrotation
													JOINT RightHandPinky4
													{
														OFFSET -3.647202 0.000000 0.000000
														CHANNELS 3 Xrotation Yrotation Zrotation
														End Site
														{
															OFFSET 0.000000 0.000000 0.000000
														}
													}
												}
											}
										}
									}
								}
							}
						}
					}
				}
			}
		}
	}
	JOINT LeftUpLeg
	{
		OFFSET 15.427100 -6.655098 0.678600
		CHANNELS 3 Xrotation Yrotation Zrotation
		JOINT LeftLeg
		{
			OFFSET 4.081073 -39.591068 13.024000
			CHANNELS 3 Xrotation Yrotation Zrotation
			JOINT LeftFoot
			{
				OFFSET -4.081074 -37.707932 -15.979700
				CHANNELS 3 Xrotation Yrotation Zrotation
				JOINT LeftToeBase
				{
					OFFSET 5.346399 -15.068900 20.645000
					CHANNELS 3 Xrotation Yrotation Zrotation
					JOINT LeftToe_End
					{
						OFFSET 2.754700 0.931300 11.300900
						CHANNELS 3 Xrotation Yrotation Zrotation
						End Site
						{
							OFFSET 0.000000 0.000000 0.000000
						}
					}
				}
			}
		}
	}
	JOINT RightUpLeg
	{
		OFFSET -15.569500 -6.655098 0.678600
		CHANNELS 3 Xrotation Yrotation Zrotation
		JOINT RightLeg
		{
			OFFSET -4.081825 -39.591045 13.023800
			CHANNELS 3 Xrotation Yrotation Zrotation
			JOINT RightFoot
			{
				OFFSET 4.081824 -37.707954 -15.979600
				CHANNELS 3 Xrotation Yrotation Zrotation
				JOINT RightToeBase
				{
					OFFSET -5.346400 -15.068900 20.645000
					CHANNELS 3 Xrotation Yrotation Zrotation
					JOINT RightToe_End
					{
						OFFSET -2.754700 0.931300 11.300900
						CHANNELS 3 Xrotation Yrotation Zrotation
						End Site
						{
							OFFSET 0.000000 0.000000 0.000000
						}
					}
				}
			}
		}
	}
}
MOTION
Frames: 5
Frame Time: 0.016667
2.911922 80.126709 -0.569769 7.705133 -10.596735 1.545659 7.617992 1.748008 -2.428260 6.431363 1.228089 -0.932161 0.000000 0.000000 0.000000 6.450694 1.172316 -0.845379 -3.222593 -0.333307 -1.041939 -12.897084 -4.165314 4.309511 -0.000001 -0.000000 0.000000 5.349783 -35.475917 4.326030 0.000000 0.000000 0.000000 -77.161207 -31.121344 -22.573246 0.000013 -27.636902 0.000003 -131.009804 7.371640 18.178627 39.578713 -17.197366 -21.086406 11.235998 23.988454 2.901708 3.118794 9.520990 4.222315 -0.000001 0.000001 -0.000000 3.600016 6.051840 -61.463479 4.128148 6.308898 -66.366196 1.118811 3.767451 -33.069310 0.000000 -0.000001 0.000001 2.451412 5.271006 -49.859923 3.793782 6.152669 -63.285951 1.517078 4.316430 -38.714817 -0.000003 0.000000 0.000002 2.452897 5.272236 -49.876053 3.792039 6.151822 -63.269777 1.517081 4.316424 -38.714834 0.000001 0.000000 -0.000001 7.187303 7.991499 -61.391776 4.144320 2.228360 -66.583211 1.118820 3.767470 -33.069310 -0.000001 0.000000 -0.000001 3.654526 31.100433 -18.637127 0.000000 0.000000 0.000000 -34.428982 31.033084 9.535806 -0.000001 29.388262 0.000000 8.244903 12.377325 -3.343644 29.376435 16.962642 20.541343 9.559552 -25.704471 -5.659310 1.488507 -8.233523 -5.339833 0.000006 -0.000001 -0.000001 2.155494 -5.036553 46.317162 4.033407 -6.309984 65.142909 1.089704 -3.742276 32.460242 -0.000001 0.000001 -0.000002 1.448248 -4.252502 37.599696 3.476833 -6.022574 59.964785 1.448461 -4.252780 37.602896 0.000002 -0.000000 -0.000001 1.448252 -4.252500 37.599696 3.476832 -6.022579 59.964799 1.448469 -4.252778 37.602900 0.000000 -0.000002 0.000001 2.155494 -5.036553 46.317166 4.033412 -6.309993 65.142909 1.089703 -3.742272 32.460242 0.000002 -0.000000 0.000002 -50.281261 2.277346 23.466662 40.334258 3.020217 3.965468 6.923461 0.621029 -19.361182 -1.160275 0.000001 -0.000002 -0.000000 0.000001 -0.000000 -24.405348 -2.725299 -34.235736 34.672970 1.591241 -0.112155 -10.882892 -6.562087 30.924289 -0.271503 0.000041 -0.000005 -0.000000 0.000001 0.000000 
3.037720 79.913132 -0.486984 7.778920 -10.193875 1.307817 7.622206 1.619714 -2.478117 6.424125 1.146839 -0.979023 0.000000 0.000000 0.000000 6.443371 1.089224 -0.899067 -3.752341 -0.436695 -0.755377 -12.941239 -4.384515 4.621761 -0.000000 0.000001 -0.000000 5.326294 -35.461038 4.512436 0.000000 0.000000 0.000000 -76.482081 -31.696941 -21.754429 -0.000006 -27.909727 0.000009 -131.195489 7.258898 17.612959 39.578713 -17.197364 -21.086411 11.235999 23.988451 2.901706 3.118801 9.520992 4.222310 -0.000001 -0.000000 0.000001 3.600017 6.051841 -61.463479 4.128146 6.308898 -66.366189 1.118813 3.767450 -33.069307 0.000000 -0.000001 -0.000002 2.451413 5.271007 -49.859923 3.793787 6.152668 -63.285951 1.517076 4.316431 -38.714817 0.000000 0.000001 -0.000001 2.452898 5.272237 -49.876053 3.792039 6.151820 -63.269777 1.517077 4.316425 -38.714834 0.000002 -0.000000 -0.000000 7.187302 7.991501 -61.391782 4.144322 2.228358 -66.583204 1.118819 3.767470 -33.069314 -0.000002 -0.000001 0.000002 3.490721 30.381330 -18.452914 0.000000 0.000000 0.000000 -35.039915 31.378077 10.047767 0.000000 29.551572 0.000001 7.728505 12.424334 -3.658103 29.376432 16.962642 20.541343 9.559547 -25.704469 -5.659315 1.488503 -8.233522 -5.339833 -0.000004 -0.000001 -0.000001 2.155493 -5.036552 46.317159 4.033406 -6.309984 65.142902 1.089704 -3.742276 32.460238 0.000000 -0.000001 -0.000001 1.448249 -4.252503 37.599700 3.476835 -6.022576 59.964778 1.448460 -4.252779 37.602889 0.000001 -0.000001 0.000000 1.448253 -4.252501 37.599700 3.476831 -6.022577 59.964799 1.448468 -4.252776 37.602900 -0.000000 -0.000000 0.000002 2.155493 -5.036552 46.317166 4.033411 -6.309994 65.142909 1.089704 -3.742271 32.460242 -0.000000 0.000000 0.000001 -50.813015 1.923690 23.458338 40.859083 2.775748 3.754268 6.713599 0.639573 -19.077285 -1.105309 -0.000002 0.000004 0.000000 0.000000 -0.000000 -24.292937 -3.057023 -34.275979 34.783353 1.555409 -0.114299 -11.149530 -6.686392 31.055227 -0.225707 -0.000022 -0.000002 -0.000000 0.000004 -0.000000 
3.171124 79.667297 -0.392971 7.727463 -9.855713 1.180163 7.639862 1.526371 -2.538101 6.433795 1.091084 -1.028594 0.000000 0.000000 0.000000 6.452323 1.034179 -0.954309 -4.162269 -0.548713 -0.475728 -12.750507 -4.641914 4.905306 -0.000000 0.000000 0.000000 5.318314 -35.463701 4.617415 0.000000 0.000000 0.000000 -75.973178 -32.528086 -21.224048 0.000003 -27.688212 0.000001 -131.101752 6.992728 16.947911 39.578716 -17.197364 -21.086413 11.235994 23.988453 2.901707 3.118803 9.520990 4.222312 -0.000000 0.000000 -0.000000 3.600018 6.051843 -61.463479 4.128147 6.308898 -66.366202 1.118811 3.767452 -33.069310 0.000000 -0.000000 -0.000002 2.451413 5.271009 -49.859916 3.793786 6.152669 -63.285951 1.517074 4.316431 -38.714820 0.000001 0.000001 -0.000003 2.452898 5.272238 -49.876053 3.792041 6.151822 -63.269777 1.517080 4.316424 -38.714830 0.000001 -0.000000 0.000002 7.187303 7.991500 -61.391776 4.144321 2.228360 -66.583204 1.118823 3.767470 -33.069310 0.000001 -0.000000 0.000001 3.343501 29.595678 -18.253974 0.000000 0.000000 0.000000 -35.737595 31.911293 10.742124 -0.000001 29.323430 0.000001 7.359821 12.604420 -3.966191 29.376435 16.962642 20.541345 9.559547 -25.704471 -5.659312 1.488501 -8.233522 -5.339834 -0.000002 0.000001 0.000000 2.155493 -5.036554 46.317162 4.033406 -6.309987 65.142909 1.089705 -3.742274 32.460235 0.000000 -0.000003 -0.000001 1.448249 -4.252503 37.599693 3.476834 -6.022576 59.964778 1.448461 -4.252781 37.602889 0.000001 -0.000001 0.000000 1.448253 -4.252502 37.599700 3.476832 -6.022577 59.964799 1.448469 -4.252778 37.602900 0.000001 -0.000002 -0.000002 2.155494 -5.036554 46.317162 4.033411 -6.309995 65.142909 1.089704 -3.742271 32.460242 0.000001 -0.000001 0.000002 -51.196854 1.677559 23.334086 41.435541 2.586248 3.646740 6.480507 0.661853 -18.871570 -1.081816 0.000006 0.000005 -0.000000 -0.000000 0.000000 -24.121363 -3.281512 -34.480468 34.984611 1.585865 -0.074259 -11.459028 -6.816529 31.154480 -0.183039 -0.000006 0.000007 -0.000000 0.000000 0.000000 
3.303301 79.426521 -0.300715 7.608396 -9.710639 1.158702 7.672456 1.467239 -2.608279 6.458414 1.059674 -1.078916 0.000000 0.000000 0.000000 6.476072 1.004666 -1.008483 -4.451150 -0.648958 -0.252692 -12.418165 -4.890462 5.127133 0.000000 0.000000 -0.000000 5.324654 -35.494451 4.670766 0.000000 0.000000 0.000000 -75.597756 -33.466554 -20.902978 0.000012 -27.148718 0.000009 -130.986554 6.692513 16.411322 39.578709 -17.197364 -21.086409 11.235991 23.988456 2.901710 3.118801 9.520990 4.222315 -0.000004 0.000000 -0.000002 3.600017 6.051843 -61.463472 4.128148 6.308898 -66.366202 1.118811 3.767453 -33.069310 -0.000001 0.000000 -0.000002 2.451412 5.271009 -49.859923 3.793785 6.152669 -63.285951 1.517074 4.316431 -38.714817 -0.000002 -0.000001 -0.000000 2.452897 5.272237 -49.876053 3.792038 6.151823 -63.269777 1.517079 4.316426 -38.714834 0.000001 0.000001 0.000001 7.187302 7.991501 -61.391776 4.144323 2.228358 -66.583204 1.118819 3.767469 -33.069307 0.000000 -0.000001 0.000001 3.228985 28.899347 -18.100975 0.000000 0.000000 0.000000 -36.415239 32.483058 11.481567 -0.000001 28.812644 0.000001 7.126550 12.795583 -4.183793 29.376435 16.962643 20.541345 9.559550 -25.704471 -5.659312 1.488505 -8.233523 -5.339832 0.000001 0.000000 -0.000000 2.155494 -5.036551 46.317155 4.033408 -6.309984 65.142909 1.089705 -3.742275 32.460235 -0.000001 0.000000 -0.000005 1.448249 -4.252503 37.599696 3.476835 -6.022575 59.964785 1.448461 -4.252779 37.602896 0.000001 -0.000000 0.000000 1.448253 -4.252499 37.599693 3.476832 -6.022577 59.964799 1.448469 -4.252777 37.602896 -0.000001 0.000000 -0.000000 2.155494 -5.036551 46.317159 4.033412 -6.309993 65.142909 1.089704 -3.742270 32.460245 -0.000000 -0.000000 0.000002 -51.518331 1.756493 23.172351 42.020434 2.377386 3.773236 6.230551 0.682045 -18.748130 -1.090905 0.000001 0.000007 -0.000000 0.000001 -0.000000 -23.978663 -3.299418 -34.731106 35.232418 1.656668 -0.050454 -11.719735 -6.926464 31.250916 -0.161693 0.000003 0.000012 0.000000 0.000004 -0.000000 
3.429812 79.203606 -0.219541 7.524574 -9.726618 1.072962 7.718683 1.440857 -2.687770 6.493214 1.049444 -1.127364 0.000000 0.000000 0.000000 6.510260 0.996294 -1.058785 -4.634159 -0.722705 -0.109982 -12.058778 -5.086244 5.266005 0.000001 -0.000000 0.000000 5.340322 -35.549512 4.695806 0.000000 0.000000 0.000000 -75.314877 -34.349643 -20.711825 -0.000006 -26.522335 -0.000003 -131.014558 6.478421 16.142068 39.578713 -17.197364 -21.086411 11.236002 23.988454 2.901704 3.118802 9.520989 4.222310 -0.000000 0.000001 -0.000000 3.600016 6.051840 -61.463479 4.128150 6.308898 -66.366196 1.118812 3.767452 -33.069310 0.000002 0.000001 -0.000001 2.451412 5.271007 -49.859923 3.793784 6.152670 -63.285951 1.517076 4.316430 -38.714817 -0.000000 0.000000 0.000000 2.452897 5.272238 -49.876053 3.792038 6.151825 -63.269777 1.517079 4.316426 -38.714834 0.000002 -0.000000 0.000001 7.187302 7.991500 -61.391776 4.144321 2.228360 -66.583211 1.118823 3.767470 -33.069310 0.000000 -0.000001 0.000000 3.150977 28.391006 -18.024828 0.000000 0.000000 0.000000 -36.963246 32.955874 12.147687 0.000000 28.192822 -0.000003 6.986301 12.928180 -4.277642 29.376435 16.962640 20.541343 9.559553 -25.704469 -5.659313 1.488504 -8.233522 -5.339833 0.000001 0.000001 0.000000 2.155494 -5.036552 46.317162 4.033406 -6.309984 65.142909 1.089704 -3.742275 32.460238 -0.000000 -0.000001 -0.000001 1.448249 -4.252504 37.599700 3.476834 -6.022575 59.964785 1.448461 -4.252778 37.602893 0.000000 -0.000001 -0.000004 1.448253 -4.252501 37.599700 3.476831 -6.022577 59.964799 1.448469 -4.252777 37.602900 0.000001 0.000000 -0.000002 2.155494 -5.036552 46.317162 4.033411 -6.309993 65.142909 1.089703 -3.742270 32.460238 0.000000 0.000002 0.000000 -51.900036 1.916039 23.124679 42.630807 2.165653 4.053206 5.988330 0.697727 -18.707005 -1.124407 -0.000003 -0.000001 -0.000000 0.000001 -0.000000 -23.954913 -3.252936 -34.756705 35.472225 1.725491 -0.178997 -11.885879 -7.003731 31.371844 -0.157210 0.000005 0.000002 0.000000 -0.000002 0.000000 
